<?xml version="1.0" standalone="no"?>
<!DOCTYPE svg PUBLIC "-//W3C//DTD SVG 20010904//EN"
 "http://www.w3.org/TR/2001/REC-SVG-20010904/DTD/svg10.dtd">
<svg version="1.0" xmlns="http://www.w3.org/2000/svg"
 width="718.000000pt" height="718.000000pt" viewBox="0 0 718.000000 718.000000"
 preserveAspectRatio="xMidYMid meet">
<metadata>
Created by potrace 1.14, written by Peter Selinger 2001-2017
</metadata>
<g transform="translate(0.000000,718.000000) scale(0.100000,-0.100000)"
fill="#000000" stroke="none">
<path d="M0 3590 l0 -3590 3590 0 3590 0 0 3590 0 3590 -3590 0 -3590 0 0
-3590z m2430 1334 l0 -135 29 20 c69 49 245 65 328 29 109 -47 122 -81 123
-311 l0 -178 -32 3 -33 3 -5 177 -5 177 -28 29 c-55 57 -191 71 -284 28 -82
-38 -87 -53 -93 -246 l-5 -165 -35 0 -35 0 -3 353 -2 352 40 0 40 0 0 -136z
m-1820 21 l0 -95 70 0 70 0 0 -35 0 -35 -70 0 -70 0 0 -156 c0 -198 7 -214 93
-214 46 0 47 -1 47 -30 0 -23 -5 -31 -26 -36 -38 -10 -115 4 -137 24 -42 38
-47 64 -47 242 l0 170 -45 0 c-45 0 -45 0 -45 34 0 34 1 35 43 38 l42 3 3 75
c2 62 6 78 23 93 42 35 49 24 49 -78z m1355 -86 c33 -6 80 -21 105 -34 43 -22
120 -95 120 -113 0 -9 -44 -32 -59 -32 -4 0 -30 22 -57 49 -53 53 -98 71 -174
71 -65 0 -116 -17 -156 -52 -49 -43 -64 -78 -64 -145 0 -82 29 -130 100 -166
49 -26 63 -28 130 -24 92 5 148 31 191 90 17 23 33 42 37 41 21 -1 62 -17 62
-24 0 -15 -60 -89 -92 -113 -141 -106 -386 -80 -472 50 -57 86 -53 215 8 296
36 47 116 92 186 106 63 12 69 12 135 0z m-705 -16 c95 -31 166 -113 185 -216
l7 -37 -251 0 -251 0 0 -23 c0 -13 13 -44 29 -69 76 -120 279 -126 380 -12
l39 45 27 -24 27 -23 -43 -45 c-70 -71 -126 -93 -239 -94 -109 0 -160 19 -223
81 -47 47 -68 94 -74 165 -12 123 59 220 187 260 45 13 146 9 200 -8z m1356
-1161 c-2 -4 -58 -122 -124 -262 -65 -140 -142 -304 -171 -365 -28 -60 -102
-218 -165 -350 l-112 -240 -49 -3 c-36 -2 -46 0 -42 10 3 7 87 186 187 398 99
212 227 483 283 602 l102 218 48 0 c27 0 46 -3 43 -8z m2362 -1 c-1 -5 -75
-161 -163 -347 -88 -186 -216 -457 -285 -603 l-126 -266 -47 -3 -48 -3 15 33
c8 18 116 249 241 513 125 264 249 526 275 583 l49 102 46 0 c26 0 45 -4 43
-9z m-3198 -127 c0 -3 -29 -62 -65 -129 l-66 -123 -417 -4 c-316 -2 -422 -6
-439 -16 -28 -15 -31 -56 -5 -68 9 -4 184 -10 387 -14 344 -6 375 -8 437 -29
83 -27 145 -73 178 -131 32 -58 35 -179 7 -252 -23 -59 -86 -117 -164 -149
l-58 -24 -582 -3 -583 -3 0 126 0 125 498 0 c305 0 511 4 534 10 59 17 62 65
5 75 -18 3 -196 9 -397 14 -343 8 -368 9 -423 30 -134 52 -192 131 -191 261 1
122 50 201 158 257 95 48 134 51 679 52 279 1 507 -2 507 -5z m2187 -454 c162
-250 298 -463 304 -472 9 -17 -2 -18 -179 -18 l-189 0 -43 60 -43 60 -358 0
-357 0 -44 -60 -43 -59 -188 -1 c-104 0 -187 4 -185 8 2 5 138 218 303 475
l300 467 214 -3 215 -2 293 -455z m1621 113 c113 -189 209 -343 212 -343 3 1
98 155 211 343 l205 342 187 3 c103 1 187 0 187 -4 0 -6 -530 -871 -562 -916
l-19 -28 -212 0 -212 0 -235 382 c-129 210 -261 424 -292 475 l-58 93 191 -2
191 -3 206 -342z"/>
<path d="M1081 4786 c-61 -20 -131 -92 -131 -136 0 -6 69 -10 206 -10 l205 0
-6 23 c-28 95 -166 157 -274 123z"/>
<path d="M3358 3147 l-97 -152 191 -3 c105 -1 193 0 196 2 4 5 -174 292 -187
300 -3 2 -50 -64 -103 -147z"/>
</g>
</svg>
